HIERARCHY
ROOT Hips
{
	OFFSET 0.000000 0.000000 0.000000
	CHANNELS 6 Xposition Yposition Zposition Zrotation Yrotation Xrotation 
	JOINT LHipJoint
	{
		OFFSET 0.000000 0.000000 0.000000
		CHANNELS 3 Zrotation Yrotation Xrotation
		JOINT LeftUpLeg
		{
			OFFSET 1.363060 -1.794630 0.839290
			CHANNELS 3 Zrotation Yrotation Xrotation
			JOINT LeftLeg
			{
				OFFSET 2.448110 -6.726130 0.000000
				CHANNELS 3 Zrotation Yrotation Xrotation
				JOINT LeftFoot
				{
					OFFSET 2.562200 -7.039590 0.000000
					CHANNELS 3 Zrotation Yrotation Xrotation
					JOINT LeftToeBase
					{
						OFFSET 0.157640 -0.433110 2.322550
						CHANNELS 3 Zrotation Yrotation Xrotation
						End Site
						{
							OFFSET 0.000000 0.000000 0.000000
						}
					}
				}
			}
		}
	}
	JOINT RHipJoint
	{
		OFFSET 0.000000 0.000000 0.000000
		CHANNELS 3 Zrotation Yrotation Xrotation
		JOINT RightUpLeg
		{
			OFFSET -1.305520 -1.794630 0.839290
			CHANNELS 3 Zrotation Yrotation Xrotation
			JOINT RightLeg
			{
				OFFSET -2.542530 -6.985550 0.000000
				CHANNELS 3 Zrotation Yrotation Xrotation
				JOINT RightFoot
				{
					OFFSET -2.568260 -7.056230 0.000000
					CHANNELS 3 Zrotation Yrotation Xrotation
					JOINT RightToeBase
					{
						OFFSET -0.164730 -0.452590 2.363150
						CHANNELS 3 Zrotation Yrotation Xrotation
						End Site
						{
							OFFSET 0.000000 0.000000 0.000000
						}
					}
				}
			}
		}
	}
	JOINT LowerBack
	{
		OFFSET 0.000000 0.000000 0.000000
		CHANNELS 3 Zrotation Yrotation Xrotation
		JOINT Spine
		{
			OFFSET 0.028270 2.035590 -0.193380
			CHANNELS 3 Zrotation Yrotation Xrotation
			JOINT Spine1
			{
				OFFSET 0.056720 2.048850 -0.042750
				CHANNELS 3 Zrotation Yrotation Xrotation
				JOINT Neck
				{
					OFFSET 0.000000 0.000000 0.000000
					CHANNELS 3 Zrotation Yrotation Xrotation
					JOINT Neck1
					{
						OFFSET -0.054170 1.746240 0.172020
						CHANNELS 3 Zrotation Yrotation Xrotation
						JOINT Head
						{
							OFFSET 0.104070 1.761360 -0.123970
							CHANNELS 3 Zrotation Yrotation Xrotation
							End Site
							{
								OFFSET 0.000000 0.000000 0.000000
							}
						}
					}
				}
				JOINT LeftShoulder
				{
					OFFSET 0.000000 0.000000 0.000000
					CHANNELS 3 Zrotation Yrotation Xrotation
					JOINT LeftArm
					{
						OFFSET 3.362410 1.200890 -0.311210
						CHANNELS 3 Zrotation Yrotation Xrotation
						JOINT LeftForeArm
						{
							OFFSET 4.983000 -0.000000 -0.000000
							CHANNELS 3 Zrotation Yrotation Xrotation
							JOINT LeftHand
							{
								OFFSET 3.483560 -0.000000 -0.000000
								CHANNELS 3 Zrotation Yrotation Xrotation
								JOINT LeftFingerBase
								{
									OFFSET 0.000000 0.000000 0.000000
									CHANNELS 3 Zrotation Yrotation Xrotation
									JOINT LeftHandIndex1
									{
										OFFSET 0.715260 -0.000000 -0.000000
										CHANNELS 3 Zrotation Yrotation Xrotation
										End Site
										{
											OFFSET 0.000000 0.000000 0.000000
										}
									}
								}
								JOINT LThumb
								{
									OFFSET 0.000000 0.000000 0.000000
									CHANNELS 3 Zrotation Yrotation Xrotation
									End Site
									{
										OFFSET 0.000000 0.000000 0.000000
									}
								}
							}
						}
					}
				}
				JOINT RightShoulder
				{
					OFFSET 0.000000 0.000000 0.000000
					CHANNELS 3 Zrotation Yrotation Xrotation
					JOINT RightArm
					{
						OFFSET -3.136600 1.374050 -0.404650
						CHANNELS 3 Zrotation Yrotation Xrotation
						JOINT RightForeArm
						{
							OFFSET -5.241900 -0.000000 -0.000000
							CHANNELS 3 Zrotation Yrotation Xrotation
							JOINT RightHand
							{
								OFFSET -3.444170 -0.000000 -0.000000
								CHANNELS 3 Zrotation Yrotation Xrotation
								JOINT RightFingerBase
								{
									OFFSET 0.000000 0.000000 0.000000
									CHANNELS 3 Zrotation Yrotation Xrotation
									JOINT RightHandIndex1
									{
										OFFSET -0.622530 -0.000000 -0.000000
										CHANNELS 3 Zrotation Yrotation Xrotation
										End Site
										{
											OFFSET 0.000000 0.000000 0.000000
										}
									}
								}
								JOINT RThumb
								{
									OFFSET 0.000000 0.000000 0.000000
									CHANNELS 3 Zrotation Yrotation Xrotation
									End Site
									{
										OFFSET 0.000000 0.000000 0.000000
									}
								}
							}
						}
					}
				}
			}
		}
	}
}
MOTION
Frames: 7
Frame Time: 0.008333
23.041399 17.856235 -7.987052 -177.748280 -5.077048 -166.679319 6.787259 3.767885 -0.332127 -29.532535 -13.428828 -17.941717 -1.300163 8.474647 24.842697 -2.303333 15.946995 -12.809204 0.255300 3.251000 8.978400 -9.417106 -4.062290 -0.083742 25.458826 14.463432 -29.894322 -0.158359 -12.623754 33.134720 2.088912 -24.297577 -26.377962 -3.089700 -10.838800 31.738200 1.851714 -0.201534 6.714097 1.095371 -0.319243 0.087847 -1.893572 -0.032017 0.533995 -2.032096 6.803315 -12.104987 -0.847151 8.569580 -2.542781 -1.999600 3.676400 -2.080900 2.334366 -13.617703 2.273466 -88.500353 -25.140956 45.595724 14.357475 -15.154773 -3.366260 -1.775488 -1.268688 9.166645 -0.393217 41.105098 0.761400 -7.125000 0.000000 0.000000 -48.119600 66.525600 -27.558400 -2.651013 13.678891 3.954586 79.167727 22.162625 32.043844 -10.617039 11.316062 -2.488111 -1.277176 -1.493964 -31.361462 -32.536296 27.613208 -16.045500 7.125000 0.000000 0.000000 0.029100 2.804200 0.030400 
23.037072 17.868458 -8.092408 -177.868043 -5.916854 -166.787920 6.722397 3.799195 -0.318109 -29.653359 -13.265751 -17.208735 -1.359481 8.242065 24.381568 -2.260719 15.638193 -12.548360 0.165900 2.624100 7.233800 -9.340106 -4.018575 -0.052823 24.633067 16.041186 -29.068789 0.379643 -11.864246 30.836497 2.136623 -24.874455 -27.417601 -3.125300 -10.895200 31.927400 2.005126 -0.159274 6.752065 1.170676 -0.263443 0.115324 -1.759927 -0.011094 0.590473 -2.000535 6.902339 -12.239022 -0.930286 8.718177 -2.484123 -2.047800 3.742800 -2.005800 2.348777 -13.612139 2.264591 -88.620584 -24.960276 46.269698 14.432317 -15.270805 -3.408336 -1.759073 -1.304944 8.321007 -0.242490 41.456971 0.869400 -7.125000 0.000000 0.000000 -48.608900 66.807800 -28.190000 -2.625756 13.669580 3.973673 78.911854 22.206112 31.220348 -10.508841 11.164385 -2.479221 -1.306789 -1.471463 -30.796501 -32.431597 28.019491 -16.166500 7.125000 0.000000 0.000000 0.168900 3.199300 0.178100 
23.028635 17.877977 -8.203930 -177.994448 -6.891591 -166.876491 6.642963 3.833537 -0.294546 -29.748630 -13.126803 -16.388627 -1.436916 7.960758 23.815719 -2.086233 14.781906 -12.656934 0.235100 3.120600 8.614600 -9.268767 -3.990719 -0.033560 23.802574 17.423375 -28.353307 0.828530 -11.152429 28.734700 2.346230 -25.669662 -27.669571 -3.111900 -10.874000 31.856300 2.216634 -0.192870 6.737449 1.265887 -0.314981 0.160276 -1.588279 -0.041492 0.718350 -2.111041 7.022985 -12.390897 -0.982305 8.873854 -2.589590 -2.049300 3.805800 -2.028200 2.359445 -13.613470 2.267154 -88.705775 -24.889726 46.811053 14.503604 -15.377395 -3.455174 -1.732320 -1.358599 7.764473 -0.800422 41.934990 0.479500 -7.125000 0.000000 0.000000 -50.081100 66.970900 -29.392700 -2.602144 13.643986 4.002347 78.548056 22.308467 30.866377 -10.465452 11.086689 -2.446860 -1.294635 -1.480083 -30.573431 -32.263677 27.523461 -15.835600 7.125000 0.000000 0.000000 0.167500 2.628100 0.175000 
23.021821 17.889984 -8.311990 -178.168304 -7.944232 -166.712771 6.592295 3.843525 -0.289246 -29.840654 -13.219677 -15.750355 -1.530733 7.672671 23.155665 -1.974392 14.161316 -12.458804 0.259300 3.275900 9.048000 -9.245659 -3.933667 0.003563 22.657792 19.381141 -27.927454 1.193196 -10.556233 26.872336 2.752414 -26.932612 -27.366331 -2.796300 -10.357800 30.143400 2.390580 -0.257586 6.477635 1.364473 -0.407882 0.165321 -1.401094 -0.088531 0.808677 -2.142498 7.212634 -12.238076 -1.071657 9.100565 -2.803769 -2.108100 3.901700 -2.174000 2.370842 -13.612036 2.257185 -88.877471 -24.765479 46.454066 14.487928 -15.348753 -3.407420 -1.714920 -1.342306 8.625278 -1.652798 41.276625 -0.131900 -7.125000 0.000000 0.000000 -49.763500 66.292200 -28.443200 -2.580403 13.606800 4.041076 78.143971 22.313257 30.833572 -10.487469 11.086637 -2.420059 -1.268873 -1.496742 -30.736030 -32.089994 26.928163 -15.456200 7.125000 0.000000 0.000000 0.151600 1.947500 0.156700 
23.018575 17.895825 -8.414101 -178.501692 -8.986595 -166.499483 6.568364 3.848355 -0.292580 -30.103952 -13.366433 -15.196660 -1.611148 7.408401 22.530555 -1.936341 13.818042 -11.840774 0.202900 2.900400 8.001500 -9.225830 -3.854012 0.050551 21.060718 21.818287 -27.510364 1.471715 -10.047994 25.293777 2.810866 -27.158885 -27.562037 -2.743600 -10.268000 29.848900 2.384096 -0.323148 6.238171 1.433796 -0.497004 0.143941 -1.229789 -0.138451 0.873540 -2.060328 7.406288 -12.299609 -1.128111 9.374799 -2.765830 -2.160300 4.029000 -2.123900 2.385869 -13.606200 2.238357 -88.967099 -24.582378 46.439737 14.464193 -15.321808 -3.359284 -1.732362 -1.279734 8.628749 -0.477804 40.533886 0.677200 -7.125000 0.000000 0.000000 -47.238500 66.104300 -26.524300 -2.563968 13.594303 4.058455 77.932373 22.311975 30.216344 -10.485136 11.048649 -2.417784 -1.288418 -1.479899 -30.297498 -31.915438 27.135659 -15.444100 7.125000 0.000000 0.000000 0.290500 2.111300 0.301000 
23.015006 17.894094 -8.517835 -179.048394 -10.013529 -166.428770 6.549738 3.872476 -0.274592 -30.606385 -13.474661 -14.510044 -1.648876 7.201083 22.120018 -1.800436 13.110101 -11.570075 0.191100 2.815300 7.764900 -9.180027 -3.801096 0.083645 19.302154 24.002577 -26.910106 1.654781 -9.594270 24.003873 2.752003 -26.804718 -27.483083 -2.717400 -10.222900 29.701600 2.200817 -0.363074 6.244861 1.468325 -0.543731 0.101653 -1.045735 -0.169021 0.819046 -2.096028 7.524562 -12.532050 -1.057774 9.584672 -2.507866 -2.104200 4.148500 -1.926900 2.397225 -13.600983 2.215963 -88.969756 -24.231939 47.115053 14.574589 -15.496520 -3.419346 -1.727182 -1.297064 7.864859 0.078801 40.983042 1.067200 -7.125000 0.000000 0.000000 -47.442100 66.565200 -27.137100 -2.563688 13.593116 4.066061 77.717558 22.125825 29.732529 -10.515711 11.052312 -2.432467 -1.315238 -1.460106 -30.149634 -31.704078 27.667138 -15.551400 7.125000 0.000000 0.000000 0.513100 2.600700 0.535900 
23.016088 17.888794 -8.625354 -179.305399 -10.741815 -166.419031 6.523646 3.896401 -0.265180 -30.782201 -13.260637 -14.007626 -1.654100 7.077725 21.936960 -1.607475 12.175743 -11.715543 0.235500 3.122900 8.621200 -9.167800 -3.774534 0.122071 17.983009 26.327822 -26.288689 1.755807 -9.231340 23.006332 2.949731 -27.045182 -26.486586 -2.287300 -9.440400 27.182900 2.213203 -0.217142 6.190894 1.521301 -0.356592 0.110182 -0.862606 -0.080492 0.863539 -2.120891 7.554259 -12.621489 -1.092013 9.645526 -2.413649 -2.116900 4.181700 -1.854300 2.412387 -13.588274 2.202715 -88.999959 -24.035967 47.974676 14.627101 -15.584851 -3.453116 -1.682137 -1.366329 7.262467 -1.057342 41.301770 0.274900 -7.125000 0.000000 0.000000 -49.208800 66.469200 -28.248400 -2.548697 13.578172 4.094758 77.345233 21.912702 29.341585 -10.592177 11.113312 -2.435663 -1.310483 -1.462463 -30.403497 -31.538678 27.650065 -15.439900 7.125000 0.000000 0.000000 0.603500 2.528200 0.629500 
